<?xml version="1.0" encoding="UTF-8" standalone="no"?>
<svg
   xmlns:dc="http://purl.org/dc/elements/1.1/"
   xmlns:cc="http://creativecommons.org/ns#"
   xmlns:rdf="http://www.w3.org/1999/02/22-rdf-syntax-ns#"
   xmlns:svg="http://www.w3.org/2000/svg"
   xmlns="http://www.w3.org/2000/svg"
   xmlns:sodipodi="http://sodipodi.sourceforge.net/DTD/sodipodi-0.dtd"
   xmlns:inkscape="http://www.inkscape.org/namespaces/inkscape"
   width="1766"
   height="448"
   viewBox="0 0 1766 448"
   fill="none"
   version="1.1"
   id="svg116"
   sodipodi:docname="arbuste.svg"
   inkscape:version="0.92.5 (2060ec1f9f, 2020-04-08)">
  <metadata
     id="metadata122">
    <rdf:RDF>
      <cc:Work
         rdf:about="">
        <dc:format>image/svg+xml</dc:format>
        <dc:type
           rdf:resource="http://purl.org/dc/dcmitype/StillImage" />
        <dc:title></dc:title>
      </cc:Work>
    </rdf:RDF>
  </metadata>
  <defs
     id="defs120">
    <clipPath
       clipPathUnits="userSpaceOnUse"
       id="clipPath4677">
      <rect
         style="fill:#ff6733;fill-opacity:1;stroke:#f60000;stroke-width:1.50665641;stroke-opacity:1"
         id="rect4679"
         width="1763.3746"
         height="381.93246"
         x="-2.5760477"
         y="88.92028" />
    </clipPath>
  </defs>
  <sodipodi:namedview
     pagecolor="#ffffff"
     bordercolor="#666666"
     borderopacity="1"
     objecttolerance="10"
     gridtolerance="10"
     guidetolerance="10"
     inkscape:pageopacity="0"
     inkscape:pageshadow="2"
     inkscape:window-width="1848"
     inkscape:window-height="1016"
     id="namedview118"
     showgrid="false"
     inkscape:zoom="0.94394111"
     inkscape:cx="692.31014"
     inkscape:cy="139.24895"
     inkscape:window-x="72"
     inkscape:window-y="27"
     inkscape:window-maximized="1"
     inkscape:current-layer="g139" />
  <g
     id="g139"
     transform="translate(2.3613,-46.06094)"
     clip-path="url(#clipPath4677)">
    <path
       id="path86"
       d="m 396.753,312.705 c -24.2,-4.757 -41.65,26.137 -41.65,26.137 0,0 28.76,-3.491 40.23,-22.694 -1.77,4.29 -3.53,8.568 -5.29,12.859 -23.49,17.359 -29.17,71.882 -27.12,93.987 20.53,-32.407 27.93,-61.162 27.45,-92.364 2.95,-6.996 5.92,-13.978 8.9,-20.961 -6.26,28.718 10.27,63.596 10.27,63.596 0,0 4.85,-50.54 -8.13,-68.625 l 8.69,-20.272 c -5.1,27.44 14.79,54.24 14.79,54.24 0,0 5.25,-37.324 -12.33,-59.981 l 4.12,-9.626 c 1.81,-4.156 3.62,-8.323 5.42,-12.491 -5.68,26.96 15.59,51.413 15.59,51.413 0,0 3.25,-39.414 -13.22,-56.872 2.72,-6.245 5.45,-12.49 8.22,-18.711 1.32,-3.036 2.64,-6.061 3.97,-9.085 -6.96,25.694 13.99,53.614 13.99,53.614 0,0 2.73,-40.287 -11.14,-60.056 3.11,-7.007 6.23,-14.003 9.34,-20.998 l 1.03,-2.262 c -2.57,22.916 13.96,54.511 13.96,54.511 0,0 5.59,-46.987 -13.07,-56.466 l 6.33,-13.916 c 1.38,-3.025 2.74,-6.049 4.15,-9.049 l 0.26,-0.553 c 0.61,23.949 10.26,42.783 10.26,42.783 0,0 5.74,-30.649 -9.36,-44.725 l 3.02,-6.528 4.18,-9.024 c 0.69,-1.512 1.4,-3 2.12,-4.487 l 2.14,-4.475 4.28,-8.938 c 1.43,-2.975 2.84,-5.975 4.32,-8.913 l 8.79,-17.703 4.57,-8.7041 4.54,-8.7287 -4.73,8.5565 -4.71,8.5813 -9.08,17.469 c -1.53,2.902 -2.96,5.889 -4.42,8.84 l -4.37,8.876 -2.19,4.438 c -0.73,1.475 -1.46,2.963 -2.16,4.463 l -4.27,8.962 c -2.94,6.061 -5.79,12.195 -8.63,18.342 -13.53,-17.199 -36.34,9.663 -36.34,9.663 0,0 21.27,3.037 35.77,-8.433 -2.53,5.507 -5.05,11.015 -7.59,16.523 -0.92,2.04 -1.84,4.094 -2.76,6.134 -13.25,-17.654 -40.32,7.241 -40.32,7.241 0,0 25.15,7.217 39.66,-5.79 -3.79,8.421 -7.58,16.83 -11.3,25.301 -13.51,-17.531 -43.48,9.564 -43.48,9.564 0,0 28.56,5.25 42.96,-8.396 -0.35,0.799 -0.71,1.598 -1.06,2.409 -3,6.86 -5.98,13.733 -8.96,20.617 -19.84,-18.06 -50.9,14.618 -50.9,14.618 0,0 35.03,3.11 50.11,-12.774 -3.43,7.954 -6.85,15.908 -10.24,23.887 -22.83,-10.056 -45.01,27.231 -45.01,27.231 0,0 32.52,-6.651 44.54,-26.124 -3.7,8.728 -7.38,17.482 -11.02,26.247 -1.03,2.545 -2.07,5.077 -3.12,7.622 z"
       inkscape:connector-curvature="0"
       style="fill:#006733" />
    <path
       id="path88"
       d="m 35.6333,273.438 c 0,0 12.99,-8.384 17.2,-17.408 1.32,-2.84 3.77,-7.917 6.51,-13.548 0.19,0.517 0.39,1.033 0.58,1.561 -2.41,3.086 -4.99,7.057 -6.03,10.93 -2.19,8.101 -10.49,36.685 -10.49,36.685 0,0 12.26,-11.507 19.49,-21.306 1.33,-1.807 2.3,-3.737 3,-5.741 0.39,1.856 0.74,3.676 1.02,5.422 2.22,42.401 36.3597,-1.119 36.3597,-1.119 l -10.7297,45.045 c 0,0 18.5897,-19.879 26.8097,-34.067 l 7.27,24.895 c 0,0 8.43,-19.78 3.51,-37.508 8.89,-1.955 9.6,-6.922 19.42,7.548 9.82,14.47 31.09,61.765 31.09,61.765 0,0 1.39,-28.03 -5.12,-40.152 -1.07,-2.004 -2.39,-4.352 -3.84,-6.872 3.14,2.778 5.92,5.126 7.67,6.368 6.62,4.684 13.21,21.588 20.88,20.568 7.67,-1.021 7.7,-13.229 8.56,-38.406 18.88,16.264 9.59,49.224 13.12,52.064 3.53,2.84 15.65,-27.194 14.55,-51.155 14.16,26.678 3.31,60.929 4.5,64.064 1.19,3.135 15.41,-1.967 17.48,-20.863 3.41,10.56 6.99,17.728 19.69,27.059 1.26,-6.737 -7.98,-38.456 -9.84,-58.249 1.44,-5.261 2.13,-9.048 2.13,-9.048 0,0 20.98,35.259 31.43,39.439 -2.56,-20.076 -1.58,-52.692 -1.58,-52.692 0,0 12.31,7.647 22.77,11.827 -8.62,-8.286 -13.81,-15.921 -17.14,-22.633 10.99,6.491 30.72,9.7 30.72,9.7 0,0 -1.44,-2.275 -3.68,-5.631 4.26,-4.88 10.63,-13.818 12.02,-24.809 8,2.717 10.32,-0.996 13.37,15.564 3.05,16.548 4.12,65.404 4.12,65.404 0,0 10.9,-22.166 9.75,-35.198 -0.19,-2.151 -0.46,-4.708 -0.77,-7.462 1.62,3.786 3.09,7.044 4.11,8.901 3.82,7.032 4.31,12.613 10.99,15.502 6.67,2.889 10.01,4.328 19.48,-15.761 9.47,-20.088 2.89,14.692 2.89,14.692 0,0 -9.47,20.088 -7.4,25.473 1.91,4.942 20.24,-19.363 31.05,-33.132 -1.83,6.86 -3.58,16.289 -3.73,28.509 2.3,18.834 8.38,25.731 8.38,25.731 l 6.68,-29.333 c 0,0 -2.97,29.96 23.71,48.475 4.88,-17.605 17.03,-43.705 17.03,-43.705 0,0 7.49,12.196 14.65,20.678 -4.22,-10.929 -5.84,-19.67 -6.24,-26.751 6.79,10.622 21.94,22.793 21.94,22.793 0,0 -3.71,-23.998 -7.86,-34.755 -0.03,-0.086 -0.07,-0.172 -0.1,-0.258 2.28,0.996 4.97,1.5 8.19,1.082 15.86,-2.103 24.36,-33.366 24.36,-33.366 0,0 -4.34,42.02 -1.5,37.877 2.85,-4.143 21.18,-32.947 23.7,-40.815 2.52,-7.868 8.05,-18.023 8.05,-18.023 0,0 -11.01,39.144 -4.79,55.273 6.23,16.13 13.3,-13.068 13.3,-13.068 0,0 6.63,-15.945 14.96,-49.077 10.01,4.327 -0.03,54.646 1.72,56.293 1.75,1.648 12.32,-24.243 12.32,-24.243 0,0 0.07,-0.344 0.19,-0.922 1.18,4.635 2.05,8.163 2.05,8.163 0,0 6.55,19.854 19.89,25.633 -0.82,-9.307 -16.37,-30.133 -12.62,-34.128 1.58,-1.684 -1.64,-7.647 -5.5,-12.478 0.83,-1.623 1.72,-2.607 2.61,-2.213 3.34,1.438 14.32,16.953 27.66,22.719 13.34,5.778 20.58,-21.564 20.58,-21.564 0,0 18.15,23.973 17.82,20.248 -0.32,-3.749 -160.3,-237.6648 -160.3,-237.6648 l -338.68,39.8444 c 0,0 -131.6097,139.1664 -127.6997,146.6534 -3.37,2.582 -6.72,5.299 -9.6,7.954 -11.06,10.155 -9.23,26.506 -8.09,36.722 z M 329.953,257.567 c -2.25,-3.27 -4.86,-6.934 -7.48,-10.352 3.35,-1.598 6.55,-3.294 9.21,-5.016 z"
       inkscape:connector-curvature="0"
       style="opacity:0.5;fill:#4ca338" />
    <path
       id="path90"
       d="m 303.113,229.377 -0.37,-1.967 c -0.6,-0.172 -1.19,-0.381 -1.79,-0.578 0.3,1.537 0.6,3.073 0.91,4.61 0.77,3.897 1.56,7.782 2.34,11.679 -24.91,22.818 -20.15,81.828 -20.15,81.828 0,0 23.42,-43.422 21.21,-76.554 1.32,6.578 2.65,13.143 3.98,19.707 -5.2,38.136 0.91,52.815 16.87,77.821 -2.82,-37.152 0.2,-40.447 -15.33,-76.37 -2.08,-10.794 -4.15,-21.6 -6.19,-32.406 14.67,38.233 57.66,59.551 57.66,59.551 0,0 -32.26,-60.855 -59.14,-67.321 z"
       inkscape:connector-curvature="0"
       style="fill:#006733" />
    <path
       id="path92"
       d="m 219.773,258.008 c -4.91,2.742 -9.8,5.557 -13.41,7.856 -9.61,-5.213 8.6,-19.019 12.09,-27.317 -10.66,9.392 -32.91,17.679 -32.91,17.679 0,0 8.27,-25.141 15.36,-35.567 0.05,-0.086 0.11,-0.172 0.17,-0.258 -3.23,0.332 -6.97,-0.024 -11.29,-1.573 -21.29,-7.635 -28.63,-44.861 -28.63,-44.861 0,0 0.25,47.651 -3.06,42.144 -3.31,-5.508 -24.37,-43.336 -26.74,-52.827 -2.37,-9.503 -8.52,-22.51 -8.52,-22.51 0,0 9.71,46.717 -0.93,62.367 -18.02,2.397 -23.19,-38.591 -30.06,-77.808 -20.24,9.565 -2.57,65.12 -5.17,66.35 -2.6,1.229 -18.23,-35.837 -18.23,-35.837 0,0 -0.04,-0.405 -0.13,-1.082 -2.23,4.697 -3.89,8.286 -3.89,8.286 0,0 -11.58,19.621 -30.5,21.49 2.36,-9.958 26.32,-27.612 21.75,-33.279 -1.92,-2.385 3.26,-7.844 9.16,-11.864 -0.9,-2.065 -1.99,-3.442 -3.26,-3.307 -4.73,0.467 -21.76,13.818 -40.68,15.675 -18.92003,1.856 -9.9,-20.174 -9.9,-20.174 0,0 -11.880021,-12.38 -10.9400208,-16.376 C 0.992979,111.22 63.703,52.7624 63.703,52.7624 c 0,0 338.62,-10.3268 405.34,34.8408 72.42,49.0398 39.3,52.2978 38.3,56.7728 4.94,1.746 9.89,3.651 14.27,5.594 16.79,7.45 20.58,24.477 22.94,35.123 0,0 -18.45,-5.175 -26.73,-13.228 -2.6,-2.532 -7.35,-7.044 -12.65,-12.048 -0.04,0.578 -0.08,1.144 -0.12,1.721 3.98,2.508 8.48,5.865 11.13,9.528 5.55,7.647 25.78,34.472 25.78,34.472 0,0 -18.72,-8.507 -30.85,-16.584 -2.23,-1.488 -4.08,-3.197 -5.64,-5.041 0.21,1.979 0.46,3.91 0.76,5.754 12.78,43.495 -43.52,8.175 -43.52,8.175 l 29.1,42.869 c 0,0 -29.27,-15.368 -44.18,-27.637 l 0.43,27.083 c 0,0 -17.19,-17.862 -17.8,-37.078 -11.25,0.295 -13.9,-4.561 -20.28,12.614 -6.38,17.174 -14.41,70.505 -14.41,70.505 0,0 -11.83,-28.03 -8.53,-41.971 0.55,-2.299 1.25,-5.016 2.05,-7.942 -2.71,3.614 -5.15,6.7 -6.78,8.409 -6.15,6.442 -7.57,12.417 -17.03,13.351 -9.46,0.934 -24.37,-23.875 -24.37,-23.875 0,0 -6.17,6.688 -5.91,15.171 0.26,8.495 6.63,30.489 6.63,30.489 0,0 -25.43,-34.792 -38.28,-53.565 1.57,8.164 23.08,57.499 23.08,57.499 0,0 -20.62,-1.82 -32.95,-22.424 6.83,19.092 -3.49,41.049 -3.49,41.049 0,0 -9.94,-19.375 -14.93,-39.906 -3.62,-4.967 -3.45,-19.51 -3.45,-19.51 0,0 -10.98,54.486 -48.73,39.856 19.52,-27.034 16.72,-35.492 16.72,-35.492 0,0 -9.96,5.151 -19.83,10.671 z"
       inkscape:connector-curvature="0"
       style="fill:#006733" />
    <path
       id="path94"
       d="m 25.7421,229.244 c 0,0 11.2532,-7.643 14.911,-15.904 1.1493,-2.6 3.278,-7.245 5.6466,-12.392 0.1699,0.476 0.3298,0.952 0.4997,1.428 -2.0888,2.818 -4.3174,6.447 -5.2369,9.998 -1.8988,7.425 -9.1045,33.586 -9.1045,33.586 0,0 10.6236,-10.5 16.8899,-19.469 1.1493,-1.648 1.9888,-3.41 2.5984,-5.251 0.3398,1.699 0.6396,3.372 0.8795,4.98 1.9088,38.862 31.501,-0.913 31.501,-0.913 l -9.3144,41.242 c 0,0 16.1203,-18.157 23.246,-31.141 l 6.2966,22.841 c 0,0 7.315,-18.093 3.058,-34.358 7.705,-1.763 8.315,-6.318 16.82,6.975 8.505,13.292 26.904,56.696 26.904,56.696 0,0 1.209,-25.684 -4.418,-36.815 -0.929,-1.84 -2.069,-3.989 -3.318,-6.306 2.719,2.548 5.127,4.71 6.646,5.855 5.737,4.311 8.145,9.085 14.791,8.184 6.646,-0.913 9.964,-1.364 10.724,-24.423 0.759,-23.059 7.695,11.697 7.695,11.697 0,0 -0.759,23.059 2.918,26.817 3.378,3.448 10.074,-28.065 14.222,-46.145 0.919,7.142 2.828,16.536 7.086,27.628 0.899,2.342 1.859,4.516 2.838,6.55 l -2.009,27.653 c 0,0 4.398,-8.043 8.625,-16.458 5.247,7.296 9.744,10.5 9.744,10.5 0,0 2.029,-18.067 0.42,-36.223 1.249,-4.813 1.849,-8.287 1.849,-8.287 0,0 18.159,32.376 27.213,36.236 -2.208,-18.401 -1.349,-48.294 -1.349,-48.294 0,0 10.664,7.039 19.718,10.9 -7.455,-7.618 -11.962,-14.631 -14.841,-20.795 9.515,5.984 26.614,8.982 26.614,8.982 0,0 -1.249,-2.098 -3.178,-5.173 3.688,-4.465 9.215,-12.637 10.424,-22.699 6.936,2.522 8.944,-0.875 11.583,14.296 2.638,15.184 3.548,59.939 3.548,59.939 0,0 9.444,-20.28 8.465,-32.234 -0.16,-1.969 -0.39,-4.311 -0.66,-6.846 1.399,3.474 2.678,6.46 3.558,8.171 3.308,6.46 3.728,11.581 9.514,14.245 5.777,2.664 8.665,4.002 16.88,-14.386 8.215,-18.389 2.499,13.472 2.499,13.472 0,0 -8.216,18.389 -6.417,23.317 7.656,4.311 24.696,-31.552 34.06,-44.137 -1.589,6.28 -10.254,28.786 -10.394,39.994 -0.03,2.367 0.05,4.632 0.19,6.781 l -10.763,21.477 c 0,0 6.276,-4.285 12.532,-8.969 1.929,8.634 4.577,13.55 4.577,13.55 0,0 7.616,-13.666 12.263,-29.262 2.608,-3.281 4.247,-5.791 4.247,-5.791 0,0 4.328,35.67 10.524,43.456 4.227,-16.111 14.771,-39.994 14.771,-39.994 0,0 6.476,11.208 12.682,18.993 -3.647,-10.024 -5.046,-18.041 -5.396,-24.539 5.876,9.754 18.998,20.962 18.998,20.962 0,0 -3.198,-22.005 -6.796,-31.874 -0.03,-0.077 -0.06,-0.168 -0.09,-0.245 1.969,0.927 4.308,1.39 7.096,1.017 13.742,-1.866 21.117,-30.497 21.117,-30.497 0,0 -3.777,38.501 -1.309,34.705 2.469,-3.784 18.369,-30.124 20.548,-37.33 2.189,-7.206 6.976,-16.484 6.976,-16.484 0,0 -9.555,35.824 -4.168,50.635 5.387,14.798 11.523,-11.928 11.523,-11.928 0,0 5.747,-14.593 12.972,-44.935 8.665,4.002 -0.049,50.069 1.47,51.587 1.519,1.519 10.683,-22.171 10.683,-22.171 0,0 0.06,-0.322 0.16,-0.849 1.019,4.246 1.779,7.489 1.779,7.489 0,0 5.667,18.221 17.22,23.548 -0.7,-8.531 -14.172,-27.666 -10.914,-31.321 1.369,-1.531 -1.419,-7.013 -4.767,-11.452 0.72,-1.493 1.489,-2.381 2.269,-2.02 2.888,1.338 12.402,15.57 23.955,20.91 11.553,5.328 17.83,-19.688 17.83,-19.688 0,0 15.71,22.03 15.43,18.62 C 583.716,233.748 449.087,67.6226 449.087,67.6226 L 158.132,110.949 c 0,0 -120.4271,70.542 -117.0392,77.414 -2.9182,2.355 -5.8265,4.838 -8.315,7.257 -9.5842,9.265 -8.0152,24.256 -7.0357,33.624 z M 277.73,215.63 c -1.948,-3.011 -4.207,-6.37 -6.476,-9.509 2.909,-1.454 5.677,-2.999 7.976,-4.569 z m 199.7,53.042 c -32.57,42.168 -58.015,93.679 -58.015,93.679 0,0 26.265,-28.735 53.518,-83.23 -0.59,1.299 -33.56,104.835 -33.56,104.835 0,0 31.751,-64.867 40.666,-119.299 4.417,-9.497 8.824,-18.993 13.212,-28.49 -22.996,72.1 -25.525,134.651 -25.525,134.651 0,0 23.646,-81.313 26.664,-137.108 4.438,-9.6 8.865,-19.212 13.282,-28.825 -18.709,76.822 -14.481,135.603 -14.481,135.603 0,0 13.052,-78.61 15.161,-137.083 3.638,-7.913 7.265,-15.827 10.883,-23.741 -18.339,76.783 -6.256,141.998 -6.256,141.998 0,0 6.316,-84.491 7.066,-143.774 3.008,-6.575 6.026,-13.164 9.024,-19.752 0.74,-1.634 1.479,-3.256 2.219,-4.89 -12.922,66.051 -3.448,146.746 -3.448,146.746 0,0 9.294,-89.972 4.467,-148.985 1.21,-2.651 2.409,-5.314 3.618,-7.978 -0.29,-0.644 -0.579,-1.3 -0.869,-1.943 -2.209,4.967 -4.418,9.921 -6.626,14.888 -40.396,21.567 -103.488,76.693 -103.488,76.693 0,0 52.428,-19.508 103.208,-76.062 -0.1,0.218 -0.19,0.424 -0.29,0.643 -4.347,9.767 -8.715,19.521 -13.072,29.275 -40.236,21.438 -85.189,63.825 -85.189,63.825 0,0 34.309,-6.756 84.939,-63.272 -3.018,6.743 -6.056,13.486 -9.084,20.228 -39.846,22.751 -83.14,81.583 -83.14,81.583 0,0 33.299,-22.84 82.88,-80.991 -3.788,8.429 -7.586,16.857 -11.393,25.286 -37.858,27.936 -80.712,95.751 -80.712,95.751 0,0 35.619,-30.626 80.252,-94.722 -4.328,9.536 -14.871,32.093 -15.911,34.461 z M 171.584,314.508 C 179.09,382.245 198.208,448 198.208,448 c 0,0 -2.298,-50.97 -22.286,-120.959 0.519,1.608 51.519,112.312 51.519,112.312 0,0 -24.276,-82.484 -56.916,-130.752 -3.708,-11.8 -7.436,-23.587 -11.163,-35.374 35.498,77.144 78.363,123.481 78.363,123.481 0,0 -41.615,-84.298 -79.323,-126.518 -3.777,-11.903 -7.555,-23.793 -11.353,-35.67 41.825,75.342 86.688,111.077 86.688,111.077 0,0 -47.032,-69.899 -87.278,-112.891 -3.128,-9.78 -6.256,-19.547 -9.394,-29.326 42.065,74.878 96.952,105.762 96.952,105.762 0,0 -55.887,-66.013 -97.661,-107.976 -2.609,-8.119 -5.217,-16.239 -7.836,-24.359 -0.649,-2.007 -1.299,-4.002 -1.949,-6.009 38.157,61.046 102.279,105.749 102.279,105.749 0,0 -57.735,-73.322 -103.168,-108.503 -1.059,-3.268 -2.119,-6.537 -3.188,-9.792 -0.66,-0.103 -1.329,-0.206 -1.989,-0.322 2.009,6.048 4.018,12.096 6.026,18.144 -12.602,62.706 -16.989,175.506 -16.989,175.506 0,0 22.416,-75.509 17.249,-174.747 0.09,0.257 0.17,0.528 0.26,0.785 3.948,11.903 7.885,23.819 11.813,35.747 -12.592,62.436 -13.492,144.958 -13.492,144.958 0,0 18.949,-45.257 13.722,-144.263 2.718,8.249 5.427,16.497 8.135,24.758 -11.373,62.873 0.59,154.84 0.59,154.84 0,0 6.786,-55.19 -0.35,-154.119 3.388,10.32 6.766,20.653 10.144,30.986 -6.296,64.134 12.372,161.776 12.372,161.776 0,0 2.829,-63.349 -11.963,-160.515 3.808,11.761 12.583,39.852 13.562,42.722 z"
       inkscape:connector-curvature="0"
       style="fill:#013f19" />
    <path
       id="path96"
       d="m 1395.91,312.564 c -23.41,-4.762 -40.3,26.164 -40.3,26.164 0,0 27.83,-3.495 38.93,-22.718 -1.71,4.295 -3.42,8.578 -5.12,12.873 -22.73,17.377 -28.23,71.957 -26.24,94.084 19.86,-32.44 27.02,-61.226 26.56,-92.46 2.85,-7.002 5.73,-13.992 8.61,-20.983 -6.06,28.749 9.94,63.663 9.94,63.663 0,0 4.69,-50.593 -7.87,-68.696 l 8.41,-20.294 c -4.93,27.469 14.31,54.297 14.31,54.297 0,0 5.08,-37.363 -11.93,-60.044 l 3.99,-9.636 c 1.75,-4.16 3.5,-8.331 5.24,-12.503 -5.49,26.988 15.09,51.466 15.09,51.466 0,0 3.14,-39.455 -12.79,-56.931 2.63,-6.251 5.27,-12.503 7.95,-18.73 1.28,-3.04 2.55,-6.067 3.84,-9.095 -6.73,25.721 13.54,53.669 13.54,53.669 0,0 2.64,-40.328 -10.78,-60.117 3.01,-7.015 6.03,-14.018 9.04,-21.02 l 0.99,-2.265 c -2.48,22.94 13.51,54.568 13.51,54.568 0,0 5.41,-47.036 -12.65,-56.524 l 6.13,-13.931 c 1.34,-3.028 2.65,-6.055 4.02,-9.058 l 0.25,-0.554 c 0.59,23.973 9.93,42.827 9.93,42.827 0,0 5.55,-30.68 -9.06,-44.771 l 2.92,-6.535 4.04,-9.033 c 0.67,-1.514 1.36,-3.003 2.06,-4.492 l 2.07,-4.48 4.14,-8.947 c 1.38,-2.978 2.75,-5.981 4.18,-8.922 l 8.5,-17.722 4.43,-8.7126 4.39,-8.7377 -4.58,8.5654 -4.56,8.5899 -8.78,17.488 c -1.48,2.904 -2.87,5.895 -4.28,8.848 l -4.23,8.886 -2.12,4.442 c -0.7,1.477 -1.41,2.966 -2.09,4.468 l -4.13,8.971 c -2.84,6.067 -5.6,12.208 -8.35,18.362 -13.09,-17.217 -35.16,9.673 -35.16,9.673 0,0 20.58,3.039 34.61,-8.443 -2.45,5.514 -4.89,11.027 -7.34,16.54 -0.89,2.043 -1.78,4.099 -2.68,6.141 -12.82,-17.672 -39.01,7.249 -39.01,7.249 0,0 24.34,7.224 38.38,-5.796 -3.67,8.43 -7.34,16.847 -10.94,25.327 -13.07,-17.55 -42.07,9.574 -42.07,9.574 0,0 27.63,5.255 41.57,-8.405 -0.34,0.8 -0.69,1.6 -1.03,2.412 -2.9,6.867 -5.78,13.746 -8.67,20.638 -19.19,-18.078 -49.25,14.633 -49.25,14.633 0,0 33.9,3.113 48.49,-12.787 -3.32,7.962 -6.63,15.925 -9.91,23.912 -22.09,-10.067 -43.55,27.259 -43.55,27.259 0,0 31.46,-6.658 43.1,-26.152 -3.58,8.738 -7.15,17.5 -10.67,26.275 -0.99,2.548 -2,5.083 -3.02,7.63 z"
       inkscape:connector-curvature="0"
       style="fill:#006733" />
    <path
       id="path98"
       d="m 1086.92,273.433 c 0,0 13.69,-8.384 18.12,-17.408 1.39,-2.84 3.98,-7.917 6.86,-13.547 0.2,0.516 0.41,1.032 0.61,1.561 -2.54,3.086 -5.25,7.056 -6.35,10.929 -2.31,8.101 -11.06,36.684 -11.06,36.684 0,0 12.92,-11.507 20.54,-21.305 1.41,-1.807 2.43,-3.737 3.17,-5.741 0.41,1.856 0.78,3.676 1.07,5.421 2.34,42.401 38.32,-1.118 38.32,-1.118 l -11.31,45.043 c 0,0 19.59,-19.878 28.26,-34.065 l 7.66,24.894 c 0,0 8.88,-19.78 3.7,-37.507 9.36,-1.955 10.11,-6.922 20.46,7.548 10.35,14.47 32.77,61.763 32.77,61.763 0,0 1.46,-28.029 -5.4,-40.151 -1.13,-2.004 -2.52,-4.352 -4.05,-6.872 3.31,2.778 6.24,5.126 8.09,6.368 6.97,4.684 13.92,21.588 22,20.567 8.08,-1.02 8.12,-13.228 9.02,-38.405 19.9,16.265 10.11,49.224 13.83,52.063 3.72,2.84 16.49,-27.193 15.33,-51.153 14.93,26.677 3.49,60.927 4.75,64.062 1.25,3.135 16.24,-1.967 18.42,-20.863 3.59,10.561 7.36,17.728 20.75,27.059 1.33,-6.737 -8.41,-38.455 -10.37,-58.247 1.52,-5.262 2.24,-9.048 2.24,-9.048 0,0 22.11,35.258 33.13,39.437 -2.7,-20.075 -1.67,-52.69 -1.67,-52.69 0,0 12.97,7.647 24,11.827 -9.09,-8.286 -14.56,-15.921 -18.07,-22.633 11.59,6.491 32.38,9.7 32.38,9.7 0,0 -1.52,-2.275 -3.88,-5.631 4.49,-4.88 11.2,-13.818 12.67,-24.808 8.43,2.717 10.87,-0.996 14.09,15.563 3.21,16.548 4.34,65.402 4.34,65.402 0,0 11.49,-22.165 10.28,-35.196 -0.2,-2.152 -0.49,-4.709 -0.82,-7.462 1.71,3.786 3.26,7.044 4.34,8.9 4.02,7.032 4.54,12.613 11.58,15.502 7.03,2.889 10.55,4.328 20.53,-15.76 9.98,-20.088 3.04,14.691 3.04,14.691 0,0 -9.98,20.088 -7.8,25.472 2.02,4.942 21.33,-19.362 32.73,-33.131 -1.93,6.86 -3.78,16.289 -3.93,28.509 2.42,18.833 8.83,25.73 8.83,25.73 l 7.04,-29.332 c 0,0 -3.13,29.959 24.98,48.473 5.15,-17.604 17.95,-43.703 17.95,-43.703 0,0 7.89,12.195 15.44,20.677 -4.45,-10.929 -6.15,-19.669 -6.58,-26.75 7.16,10.621 23.13,22.792 23.13,22.792 0,0 -3.91,-23.997 -8.29,-34.754 -0.03,-0.086 -0.07,-0.172 -0.1,-0.258 2.4,0.996 5.23,1.5 8.63,1.082 16.71,-2.103 25.67,-33.365 25.67,-33.365 0,0 -4.57,42.019 -1.58,37.876 3,-4.143 22.32,-32.947 24.98,-40.814 2.65,-7.868 8.48,-18.023 8.48,-18.023 0,0 -11.6,39.143 -5.05,55.272 6.57,16.129 14.02,-13.068 14.02,-13.068 0,0 6.99,-15.945 15.76,-49.076 10.55,4.327 -0.03,54.645 1.82,56.292 1.84,1.648 12.98,-24.243 12.98,-24.243 0,0 0.07,-0.344 0.2,-0.922 1.24,4.635 2.16,8.163 2.16,8.163 0,0 6.9,19.855 20.96,25.633 -0.86,-9.307 -17.25,-30.132 -13.3,-34.127 1.67,-1.685 -1.73,-7.647 -5.79,-12.478 0.87,-1.623 1.81,-2.607 2.75,-2.213 3.52,1.438 15.09,16.953 29.15,22.718 14.06,5.778 21.69,-21.563 21.69,-21.563 0,0 19.12,23.973 18.78,20.248 -0.34,-3.75 -168.94,-237.6598 -168.94,-237.6598 l -356.92,39.8435 c 0,0 -138.7,139.1633 -134.58,146.6503 -3.55,2.582 -7.08,5.298 -10.12,7.954 -11.65,10.154 -9.73,26.505 -8.52,36.721 z m 310.17,-15.871 c -2.37,-3.27 -5.12,-6.934 -7.88,-10.351 3.53,-1.599 6.9,-3.295 9.7,-5.016 z"
       inkscape:connector-curvature="0"
       style="opacity:0.5;fill:#4ca338" />
    <path
       id="path100"
       d="m 1305.3,229.149 -0.35,-1.969 c -0.59,-0.172 -1.16,-0.382 -1.74,-0.578 0.29,1.538 0.58,3.076 0.88,4.615 0.75,3.901 1.51,7.79 2.27,11.691 -24.11,22.841 -19.5,81.913 -19.5,81.913 0,0 22.66,-43.467 20.52,-76.634 1.28,6.584 2.57,13.156 3.85,19.728 -5.03,38.175 0.89,52.869 16.33,77.901 -2.73,-37.191 0.19,-40.489 -14.84,-76.449 -2.01,-10.805 -4.01,-21.623 -5.98,-32.44 14.19,38.273 55.79,59.613 55.79,59.613 0,0 -31.22,-60.918 -57.23,-67.391 z"
       inkscape:connector-curvature="0"
       style="fill:#006733" />
    <path
       id="path102"
       d="m 1224.66,257.811 c -4.75,2.744 -9.48,5.562 -12.98,7.863 -9.29,-5.218 8.33,-19.038 11.7,-27.345 -10.31,9.402 -31.84,17.697 -31.84,17.697 0,0 8,-25.167 14.86,-35.603 0.05,-0.086 0.11,-0.172 0.17,-0.258 -3.13,0.332 -6.75,-0.025 -10.93,-1.576 -20.6,-7.642 -27.7,-44.906 -27.7,-44.906 0,0 0.24,47.7 -2.96,42.187 -3.21,-5.514 -23.58,-43.381 -25.88,-52.882 -2.29,-9.513 -8.24,-22.533 -8.24,-22.533 0,0 9.39,46.765 -0.9,62.431 -17.44,2.4 -22.44,-38.63 -29.09,-77.888 -19.58,9.574 -2.49,65.188 -5,66.418 -2.52,1.231 -17.64,-35.873 -17.64,-35.873 0,0 -0.04,-0.406 -0.13,-1.083 -2.16,4.701 -3.76,8.294 -3.76,8.294 0,0 -11.21,19.642 -29.51,21.512 2.28,-9.968 25.46,-27.64 21.04,-33.314 -1.86,-2.387 3.16,-7.851 8.86,-11.876 -0.87,-2.067 -1.92,-3.445 -3.15,-3.31 -4.58,0.468 -21.06,13.833 -39.36,15.691 -18.31,1.858 -9.58,-20.195 -9.58,-20.195 0,0 -11.5,-12.393 -10.59,-16.393 0.91,-3.999 61.59,-62.5172 61.59,-62.5172 0,0 327.66,-10.3375 392.22,34.8769 70.08,49.0913 38.03,52.3523 37.06,56.8323 4.78,1.747 9.57,3.655 13.81,5.599 16.25,7.458 19.92,24.503 22.2,35.16 0,0 -17.85,-5.181 -25.87,-13.242 -2.51,-2.535 -7.11,-7.051 -12.24,-12.06 -0.03,0.578 -0.07,1.144 -0.11,1.723 3.85,2.51 8.2,5.87 10.77,9.537 5.37,7.655 24.94,34.508 24.94,34.508 0,0 -18.11,-8.516 -29.85,-16.602 -2.16,-1.489 -3.95,-3.199 -5.46,-5.045 0.21,1.981 0.45,3.913 0.74,5.759 12.37,43.541 -42.11,8.184 -42.11,8.184 l 28.16,42.913 c 0,0 -28.33,-15.383 -42.75,-27.665 l 0.41,27.111 c 0,0 -16.63,-17.881 -17.22,-37.116 -10.89,0.295 -13.45,-4.566 -19.63,12.626 -6.17,17.193 -13.94,70.579 -13.94,70.579 0,0 -11.45,-28.059 -8.25,-42.015 0.53,-2.301 1.21,-5.021 1.98,-7.95 -2.62,3.618 -4.98,6.707 -6.56,8.418 -5.95,6.448 -7.33,12.429 -16.48,13.364 -9.15,0.936 -23.58,-23.899 -23.58,-23.899 0,0 -5.97,6.695 -5.72,15.186 0.25,8.504 6.42,30.521 6.42,30.521 0,0 -24.61,-34.828 -37.04,-53.62 1.51,8.171 22.33,57.558 22.33,57.558 0,0 -19.95,-1.821 -31.89,-22.447 6.61,19.112 -3.37,41.091 -3.37,41.091 0,0 -9.62,-19.395 -14.45,-39.947 -3.5,-4.972 -3.34,-19.53 -3.34,-19.53 0,0 -10.62,54.542 -47.15,39.898 18.89,-27.063 16.18,-35.53 16.18,-35.53 0,0 -9.64,5.157 -19.19,10.683 z"
       inkscape:connector-curvature="0"
       style="fill:#006733" />
    <path
       id="path104"
       d="m 693.128,275.091 c -22.09,19.112 -16.57,60.031 -16.57,60.031 0,0 20.53,-29.954 17.6,-55.97 1.28,5.058 2.57,10.116 3.86,15.174 -7.71,35.923 21.86,84.411 37.3,99.942 -4.03,-45.03 -16.15,-74.763 -36.03,-98.97 -2.04,-8.319 -4.06,-16.651 -6.06,-24.982 13,28.637 47.84,40.575 47.84,40.575 0,0 -27.74,-44.55 -49.29,-46.569 l -5.81,-24.244 c 13.11,26.521 45.57,28.908 45.57,28.908 0,0 -19.17,-34.47 -47.22,-35.775 l -2.76,-11.507 c -1.17,-4.996 -2.34,-10.005 -3.52,-15.001 12.36,26.68 44.43,25.917 44.43,25.917 0,0 -22.06,-34.237 -45.97,-32.465 -1.75,-7.519 -3.5,-15.026 -5.2,-22.558 -0.86,-3.642 -1.7,-7.285 -2.54,-10.94 10.56,26.89 44.54,29.166 44.54,29.166 0,0 -23.01,-34.446 -46.32,-36.944 -1.92,-8.479 -3.82,-16.959 -5.74,-25.438 l -0.6,-2.756 c 12.28,20.552 45.08,29.905 45.08,29.905 0,0 -24.94,-42.434 -45.6,-32.293 l -3.69,-16.983 c -0.8,-3.692 -1.61,-7.372 -2.37,-11.076 l -0.14,-0.6894 c 15.44,18.3614 34.83,24.1334 34.83,24.1334 0,0 -14.61,-29.659 -35.34,-26.5208 l -1.69,-8.0239 -2.34,-11.0883 c -0.4,-1.846 -0.77,-3.7043 -1.13,-5.5504 l -1.1,-5.5626 -2.21,-11.1129 c -0.73,-3.7043 -1.49,-7.4085 -2.15,-11.1251 l -4.12,-22.2996 -1.83,-11.1992 -1.86,-11.198997791 1.61,11.235997791 1.64,11.2359 3.75,22.3981 c 0.61,3.7412 1.34,7.4456 2.03,11.1622 l 2.09,11.1497 1.05,5.5749 c 0.35,1.8583 0.7,3.7167 1.07,5.575 l 2.23,11.1252 c 1.47,7.5686 3.04,15.1128 4.64,22.6568 -21.43,-0.813 -22.66,41.99 -22.66,41.99 0,0 18.7,-17.697 22.98,-40.489 1.44,6.744 2.9,13.488 4.33,20.232 0.55,2.486 1.1,4.972 1.65,7.458 -21.49,-1.44 -27.32,43.836 -27.32,43.836 0,0 24.38,-18.066 27.71,-42.064 2.27,10.239 4.53,20.466 6.87,30.681 -21.62,-1.096 -28.37,48.66 -28.37,48.66 0,0 25.84,-22.841 28.69,-47.245 0.22,0.972 0.44,1.944 0.66,2.904 1.92,8.258 3.85,16.516 5.8,24.774 -26.96,4.467 -31.08,59.674 -31.08,59.674 0,0 29.61,-30.643 31.6,-57.459 2.26,9.525 4.53,19.05 6.84,28.564 -24.32,13.635 -18.54,64.08 -18.54,64.08 0,0 21.53,-36.009 18.86,-62.751 2.53,10.399 5.09,20.798 7.69,31.172 0.81,2.966 1.57,5.969 2.33,8.96 z"
       inkscape:connector-curvature="0"
       style="fill:#006733" />
    <path
       id="path106"
       d="m 859.178,320.969 c 22.47,12.466 21.81,53.078 21.81,53.078 0,0 -22.21,-23.247 -22.32,-48.931 -0.63,5.181 -1.269,10.362 -1.919,15.543 11.02,32.354 -11.041,86.553 -23.611,105.493 -1.16,-44.156 6.8,-75.809 22.54,-104.225 0.98,-8.504 1.941,-17.008 2.891,-25.512 -8.9,30.828 -39.781,51.454 -39.781,51.454 0,0 20.79,-49.952 40.47,-57.582 l 2.73,-24.737 c -9.23,28.835 -38.95,39.689 -38.95,39.689 0,0 13.97,-38.052 39.72,-46.691 l 1.301,-11.741 c 0.54,-5.095 1.08,-10.19 1.62,-15.285 -8.52,28.798 -38.22,36.526 -38.22,36.526 0,0 16.659,-38.581 38.929,-43.196 0.81,-7.655 1.601,-15.309 2.351,-22.964 0.39,-3.717 0.78,-7.421 1.16,-11.138 -6.83,28.515 -37.97,39.665 -37.97,39.665 0,0 17.51,-39.037 38.76,-47.578 0.86,-8.614 1.689,-17.241 2.539,-25.856 l 0.25,-2.806 c -9.11,22.903 -38.379,40.514 -38.379,40.514 0,0 18.43,-47.196 38.599,-42.938 l 1.571,-17.23 c 0.34,-3.741 0.689,-7.482 0.989,-11.223 l 0.061,-0.689 c -12.27,21.647 -29.55,32.28 -29.55,32.28 0,0 10.27,-32.243 29.75,-34.705 l 0.69,-8.122 0.959,-11.224 c 0.17,-1.87 0.311,-3.741 0.441,-5.612 l 0.42,-5.611 0.83,-11.2241 c 0.27,-3.7412 0.57,-7.4824 0.78,-11.2236 l 1.39,-22.4351 0.48,-11.1991 0.51,-11.2113 -0.27,11.1744 -0.3,11.1868 -1.03,22.4227 c -0.16,3.7412 -0.431,7.4824 -0.661,11.2236 l -0.72,11.2237 -0.359,5.612 c -0.12,1.87 -0.241,3.741 -0.391,5.612 l -0.849,11.236 c -0.54,7.63 -1.17,15.272 -1.83,22.902 19.699,-6.424 25.48,34.213 25.48,34.213 0,0 -19.181,-12.012 -25.611,-32.687 -0.6,6.83 -1.209,13.673 -1.799,20.503 -0.24,2.523 -0.48,5.046 -0.72,7.569 19.69,-7.052 29.979,34.741 29.979,34.741 0,0 -24.47,-10.866 -30.15,-32.945 -0.98,10.4 -1.969,20.786 -3.019,31.186 19.849,-6.757 31.469,39.085 31.469,39.085 0,0 -26.329,-15.038 -31.609,-37.646 -0.1,0.985 -0.201,1.969 -0.301,2.954 -0.88,8.418 -1.769,16.823 -2.669,25.241 25.37,-2.831 35.169,48.907 35.169,48.907 0,0 -30.67,-21.525 -35.41,-46.655 -1.05,9.71 -2.12,19.432 -3.22,29.142 23.93,6.633 24.06,56.438 24.06,56.438 0,0 -23.79,-28.773 -24.22,-55.084 -1.21,10.621 -2.439,21.241 -3.719,31.874 -0.38,3.077 -0.761,6.141 -1.141,9.218 z"
       inkscape:connector-curvature="0"
       style="fill:#006733" />
    <path
       id="path108"
       d="m 366.099,214.32 c 0,0 14.32,-6.24 19.52,-14.104 1.64,-2.473 4.65,-6.891 8.01,-11.789 0.16,0.504 0.31,1.009 0.47,1.513 -2.79,2.585 -5.84,5.945 -7.28,9.427 -3.01,7.261 -14.21,32.773 -14.21,32.773 0,0 13.84,-9.218 22.26,-17.451 1.55,-1.514 2.73,-3.187 3.64,-4.972 0.25,1.772 0.45,3.495 0.59,5.157 -1.42,39.578 38.12,3.273 38.12,3.273 l -15.2,40.501 c 0,0 21.2,-16.232 31.05,-28.416 l 5.41,23.949 c 0,0 10.56,-17.34 6.99,-34.36 9.47,-0.763 10.65,-5.292 19.64,9.291 8.99,14.584 27.05,60.955 27.05,60.955 0,0 3.92,-25.819 -1.81,-37.843 -0.95,-1.981 -2.12,-4.319 -3.41,-6.83 3.03,2.941 5.74,5.452 7.46,6.806 6.51,5.131 11.91,21.585 20.01,21.549 8.11,-0.037 9.22,-11.359 12.35,-34.594 18.31,17.327 5.68,46.777 9.12,49.829 3.44,3.052 18.77,-23.358 19.73,-45.707 12.45,26.41 -1.92,56.882 -0.96,59.934 0.96,3.052 16.29,0 20.12,-17.267 2.63,10.203 5.75,17.267 18.2,27.432 1.92,-6.092 -4.94,-36.6 -5.14,-55.183 1.97,-4.713 3.03,-8.135 3.03,-8.135 0,0 18.82,35.185 29.38,40.292 -0.9,-18.915 3,-49.042 3,-49.042 0,0 12.2,8.541 22.77,13.661 -8.28,-8.701 -13.04,-16.405 -15.92,-23.026 10.91,7.322 31.27,12.627 31.27,12.627 0,0 -1.31,-2.289 -3.35,-5.649 4.88,-4.024 12.34,-11.556 14.76,-21.586 8.13,3.471 10.88,0.308 12.61,16.011 1.73,15.716 -1.47,61.127 -1.47,61.127 0,0 13.35,-19.26 13.31,-31.48 -0.01,-2.019 -0.06,-4.419 -0.15,-7.015 1.36,3.692 2.61,6.892 3.51,8.738 3.38,6.977 3.4,12.208 10.12,15.678 6.72,3.471 10.08,5.206 21.76,-12.306 11.68,-17.513 1.73,13.967 1.73,13.967 0,0 -11.68,17.513 -9.98,22.743 1.56,4.812 22.88,-15.555 35.4,-27.037 -2.52,6.153 -5.18,14.681 -6.42,25.991 0.74,17.734 6.49,24.847 6.49,24.847 l 9.58,-26.41 c 0,0 -5.75,27.432 20.52,47.762 6.65,-15.74 21.67,-38.507 21.67,-38.507 0,0 6.75,12.196 13.49,20.909 -3.44,-10.633 -4.37,-18.928 -4.16,-25.549 6.16,10.645 20.93,23.74 20.93,23.74 0,0 -1.76,-22.694 -5.15,-33.167 -0.03,-0.086 -0.05,-0.172 -0.08,-0.258 2.29,1.194 5.07,1.981 8.47,1.969 16.77,-0.062 28.42,-28.047 28.42,-28.047 0,0 -8.25,38.458 -4.91,34.951 3.34,-3.507 25.06,-28.035 28.39,-35.037 3.33,-7.002 10.01,-15.753 10.01,-15.753 0,0 -14.97,34.988 -9.89,50.679 5.09,15.703 15.06,-10.534 15.06,-10.534 0,0 8.34,-14.005 19.98,-43.738 10.08,5.206 -4.86,50.666 -3.17,52.402 1.68,1.735 15.02,-21.02 15.02,-21.02 0,0 0.1,-0.308 0.28,-0.837 0.82,4.43 1.43,7.815 1.43,7.815 0,0 5.1,19.186 18.54,26.127 -0.03,-8.738 -14.46,-29.881 -10.18,-33.142 1.8,-1.378 -1.04,-7.286 -4.65,-12.221 1.01,-1.415 2.03,-2.215 2.93,-1.747 3.36,1.735 13.48,17.414 26.92,24.342 13.441,6.929 23.421,-17.549 23.421,-17.549 0,0 16.86,24.38 16.84,20.897 C 1039.38,293.181 892.749,57.3367 892.749,57.3367 l -357.67,-3.1751 c 0,0 -149.92,113.4424 -146.49,120.8514 -3.75,1.993 -7.49,4.122 -10.74,6.239 -12.5,8.073 -12.04,23.456 -11.75,33.068 z m 305.21,33.966 c -2.07,-3.298 -4.47,-7.015 -6.91,-10.485 3.65,-1.083 7.14,-2.277 10.07,-3.557 z"
       inkscape:connector-curvature="0"
       style="fill:#006733;stroke:none;stroke-opacity:1" />
    <path
       id="path110"
       d="m 1012,259.388 c 0,0 3.32,27.24 10.77,40.166 4.15,3.065 3.91,-40.977 4.08,-66.379 2.5,8.942 6.49,20.426 13.21,33.1 1.43,2.686 2.87,5.12 4.3,7.355 l 4.09,37.012 c 0,0 2.64,-12.386 5.02,-25.185 6.88,7.319 12.09,9.59 12.09,9.59 0,0 -1.95,-24.482 -7.57,-47.521 0.19,-6.833 0.03,-11.61 0.03,-11.61 0,0 25.37,34.613 35.31,35.803 -6.29,-23.13 -12.03,-62.557 -12.03,-62.557 0,0 12.26,4.669 22.2,5.877 -9.17,-6.778 -15.23,-14.044 -19.48,-20.876 10.87,3.786 28.68,0.432 28.68,0.432 0,0 -1.71,-2.199 -4.33,-5.408 2.71,-7.41 6.45,-20.444 5.44,-34.109 7.51,0.343 8.77,-4.94 14.78,13.773 6,18.732 16.8,76.854 16.8,76.854 0,0 5,-30.522 1.37,-45.737 -0.6,-2.506 -1.34,-5.463 -2.17,-8.654 2.17,3.948 4.11,7.32 5.37,9.177 4.75,7.03 6.3,13.557 12.68,14.584 6.38,1.028 9.58,1.551 13.76,-25.978 4.18,-27.529 5.48,16.55 5.48,16.55 0,0 -4.18,27.528 -1.28,33.207 2.65,5.228 13.69,-30.575 20.31,-51.019 -0.2,8.888 0.19,20.822 2.52,35.515 0.49,3.119 1.07,6.039 1.68,8.798 l -6.05,32.648 c 0,0 5.35,-8.274 10.59,-17.054 3.84,10.474 7.59,15.756 7.59,15.756 0,0 4.62,-21.092 5.84,-43.465 1.89,-5.409 2.98,-9.375 2.98,-9.375 0,0 12.23,44.8 20.16,52.336 0.68,-22.86 5.98,-58.573 5.98,-58.573 0,0 8.98,11.898 16.92,19.434 -5.87,-11.556 -9.06,-21.453 -10.84,-29.782 8.05,10.258 23.69,19.326 23.69,19.326 0,0 -8.07,-27.421 -13.86,-38.797 -0.04,-0.09 -0.09,-0.18 -0.14,-0.27 2.19,0.361 4.63,-0.018 7.35,-1.695 13.37,-8.293 14.44,-48.856 14.44,-48.856 0,0 4.72,51.939 6.35,45.936 1.63,-6.004 11.76,-47.197 12.36,-57.546 0.6,-10.348 3.36,-24.5177 3.36,-24.5177 0,0 -1.67,50.9107 7,67.9657 8.68,17.072 8.93,-20.498 8.93,-20.498 0,0 2.54,-21.525 3.1,-64.2517 9.57,1.5504 11.02,65.4777 12.87,66.8297 1.85,1.352 5.82,-33.532 5.82,-33.532 0,0 -0.01,-0.433 -0.03,-1.172 1.97,5.12 3.44,9.032 3.44,9.032 0,0 9.71,21.418 22.48,23.473 -2.59,-10.871 -20.33,-30.143 -17.87,-36.3087 1.03,-2.596 -2.98,-8.5633 -7.31,-12.9441 0.39,-2.2535 0.98,-3.7498 1.83,-3.6056 3.19,0.5228 15.88,15.0894 28.65,17.1446 12.78,2.0548 7.79,-31.1704 7.79,-31.1704 L 1390,53.8869 1012.83,64.6856 Z m 59.59,0.036 c -3.03,-3.119 -6.51,-6.58 -9.9,-9.699 2.49,-3.804 4.83,-7.644 6.66,-11.249 z"
       inkscape:connector-curvature="0"
       style="opacity:0.5;fill:#4ca338" />
    <path
       id="path112"
       d="m 1618.4,258.269 c 0.17,3.298 -46.05,22.225 -49.32,28.01 -3.27,5.784 4.2,41.374 6.63,43.885 2.43,2.511 15.13,-8.393 16.28,-5.809 1.16,2.585 -11.09,17.427 -12.1,22.423 -1.01,5.009 12.07,72.745 19.02,75.92 6.95,3.175 36.57,-37.585 35.08,-46.741 -1.5,-9.168 -6.09,-23.776 -4.41,-25.844 1.68,-2.067 11.04,15.925 12.51,14.854 1.48,-1.07 27.64,-32.822 24.66,-40.919 -2.97,-8.098 -29.02,-32.81 -27.72,-37.166 1.3,-4.357 29.22,31.8 35.82,26.176 6.6,-5.624 46.52,-86.627 45.95,-102.453 -0.57,-15.814 -45.78,-55.7 -44.16,-63.699 1.62,-8.012 42.49,51.245 49.89,41.609 7.41,-9.636 16.61,-131.6075 -62.58,-167.3829 0,0 -88.7,6.9777 -101.83,117.2699 -6.43,8.922 44.47,6.239 45.02,11.827 0.55,5.587 -39.04,0.074 -45.93,19.58 -6.89,19.506 -1.41,100.102 4.51,106.07 5.93,5.982 52.51,-20.908 52.68,-17.61 z m 27.39,87.918 c -2.94,0.936 -5.98,-1.415 -6.78,-5.242 -0.8,-3.828 0.93,-7.68 3.88,-8.615 2.94,-0.935 5.98,1.415 6.78,5.243 0.79,3.815 -0.94,7.679 -3.88,8.614 z m 21.06,-303.6291 c -3.6,37.4983 -53.68,332.1811 -56.17,347.6501 -2.76,-1.969 50.46,-318.6803 56.17,-347.6501 z m -65.62,160.5031 c 3.93,-1.243 7.99,1.883 9.06,7.003 1.07,5.119 -1.25,10.276 -5.18,11.519 -3.93,1.243 -7.99,-1.883 -9.06,-7.003 -1.08,-5.119 1.24,-10.276 5.18,-11.519 z m 93.41,-103.1787 c 4.53,-1.4399 9.21,2.1777 10.45,8.0727 1.24,5.895 -1.44,11.852 -5.97,13.279 -4.53,1.44 -9.21,-2.178 -10.45,-8.073 -1.24,-5.883 1.43,-11.839 5.97,-13.2787 z M 1588.03,233.089 c 2.17,-0.689 4.4,1.046 4.99,3.865 0.59,2.818 -0.69,5.661 -2.86,6.35 -2.17,0.689 -4.4,-1.046 -4.99,-3.864 -0.59,-2.819 0.69,-5.661 2.86,-6.351 z"
       inkscape:connector-curvature="0"
       style="fill:#013f19" />
    <path
       id="path114"
       d="m 1215.26,61.7221 c 4.63,1.0385 9.27,2.2911 13.39,3.7726 15.82,5.651 20.46,28.4687 23.35,42.7333 0,0 -17.17,-1.985 -25.27,-10.9351 -2.54,-2.8103 -7.18,-7.7892 -12.36,-13.3027 0,0.8094 0.01,1.6342 0.01,2.4589 3.81,2.3979 8.13,5.8189 10.81,10.187 5.59,9.1489 25.89,41.0079 25.89,41.0079 0,0 -17.65,-6.598 -29.26,-14.463 -2.13,-1.451 -3.94,-3.315 -5.49,-5.468 0.33,2.718 0.69,5.361 1.09,7.865 14.67,57.396 -39.09,23.903 -39.09,23.903 l 29.49,51.851 c 0,0 -27.74,-13.211 -42.18,-26.162 l 2.27,37.877 c 0,0 -16.9,-20.161 -18.8,-46.949 -10.23,3.635 -12.98,-2.429 -17.6,23.489 -4.63,25.919 -8.24,103.063 -8.24,103.063 0,0 -12.73,-35.953 -10.69,-56.465 0.34,-3.39 0.79,-7.392 1.32,-11.729 -2.22,5.849 -4.23,10.874 -5.59,13.73 -5.15,10.798 -6.03,19.595 -14.59,23.597 -8.56,4.001 -23.86,-26.545 -23.86,-26.545 0,0 -5.15,11.15 -4.33,22.986 0.82,11.852 -4.57,30.454 -4.57,30.454 0,0 -12.86,-31.126 -25.87,-53.806 1.99,11.012 25.03,74.089 25.03,74.089 0,0 -18.92,3.33 -31.59,-22.054 7.55,24.834 -0.33,58.602 -0.33,58.602 0,0 -10.39,-24.345 -16.37,-51.745 -3.64,-5.926 -4.49,-26.391 -4.49,-26.391 0,0 -6.22,79.602 -41.639,69.843 15.911,-43.513 12.779,-54.586 12.779,-54.586 0,0 -19.594,22.742 -29.02,35.541 -9.117,-4.567 6.514,-29.156 9.116,-41.787 -9.066,16.22 -28.76,34.211 -28.76,34.211 0,0 5.794,-37.648 11.528,-54.295 0.04,-0.122 0.09,-0.275 0.14,-0.413 -2.922,1.39 -6.344,1.955 -10.397,1.024 -19.924,-4.628 -29.2,-54.784 -29.2,-54.784 0,0 3.532,66.804 0.14,60.007 -3.403,-6.796 -25.218,-53.852 -28.04,-66.498 -2.822,-12.646 -9.326,-29.157 -9.326,-29.157 0,0 12.088,62.803 3.482,87.79 -16.251,8.507 -23.806,-47.53 -32.793,-100.604 -17.772,19.214 2.182,92.127 -0.1,94.601 -2.281,2.474 -19.103,-45.086 -19.103,-45.086 0,0 -0.07,-0.549 -0.19,-1.481 -1.701,7.224 -2.972,12.738 -2.972,12.738 0,0 -9.197,30.851 -26.299,38.869 1.461,-14.662 22.066,-46.277 17.503,-52.905 -1.912,-2.795 2.431,-11.944 7.525,-19.275 -0.971,-2.642 -2.052,-4.261 -3.192,-3.726 -4.273,2 -18.863,25.597 -35.975,33.615 -17.112,8.019 -10.428,-25.475 -10.428,-25.475 0,0 -11.688,-13.99 -11.097,-19.855 0.58,-5.865 34.954,-75.9369 34.954,-75.9369 0,0 331.274,-93.63862 395.194,-49.3012 69.4,48.1557 34.69,14.7078 34.09,21.2752 z"
       inkscape:connector-curvature="0"
       style="fill:#013f19" />
  </g>
  <rect
     id="rect141"
     width="1766"
     height="357.01379"
     x="1.0593882"
     y="89.926811" />
  <path
     style="stroke-width:1.05938816"
     d="m 146.35381,375.06875 c -2.66164,-29.54023 -3.69011,-55.35923 -3.21241,-80.64426 0.43516,-23.03302 0.28351,-26.49057 -1.29587,-29.54475 l -1.7887,-3.45897 -0.69146,3.45731 c -0.38031,1.90153 -0.69146,6.50999 -0.69146,10.24104 0,8.66874 -2.72807,35.15111 -4.89421,47.50991 -1.85666,10.59309 -6.61305,30.41908 -7.49669,31.24837 -1.45988,1.37007 2.5773,-63.96972 5.62198,-90.98907 l 1.71804,-15.24642 -2.96629,-6.20619 c -1.63146,-3.41342 -3.28383,-6.20621 -3.67194,-6.20621 -0.38811,0 -1.02878,5.71761 -1.42371,12.70579 -1.42665,25.24382 -7.43836,66.59339 -12.78482,87.93609 l -2.52113,10.06418 0.46673,-8.4751 c 1.60164,-29.0831 3.91272,-61.45062 5.86221,-82.10258 1.23755,-13.10993 2.30432,-25.6805 2.37062,-27.9346 0.15835,-5.38466 -1.90713,-6.80634 -7.46144,-5.13573 l -4.0713,1.22457 -0.0784,13.00956 c -0.0486,8.06328 -0.5955,14.21791 -1.43854,16.18773 -1.35469,3.16531 -1.37062,3.14174 -3.93809,-5.82664 -1.41785,-4.95264 -2.807897,-9.66917 -3.088998,-10.48118 -0.311532,-0.89992 -2.615333,1.58195 -5.900276,6.35633 -6.003323,8.72531 -15.930698,21.24579 -16.440986,20.73551 -0.181646,-0.18164 1.549149,-8.62097 3.846209,-18.75407 2.297061,-10.13309 4.016533,-18.58375 3.821048,-18.77924 -0.195485,-0.19548 -3.285563,2.69601 -6.866839,6.42554 -14.1196,14.7041 -21.967981,13.29209 -23.939841,-4.30703 -0.408022,-3.64164 -1.085284,-6.62117 -1.505026,-6.62117 -0.419744,0 -1.445566,1.41159 -2.279606,3.13688 -1.485409,3.07269 -14.996316,19.2184 -15.589737,18.62993 -0.867107,-0.85986 9.415711,-34.83609 11.376411,-37.58963 1.265647,-1.77744 1.972144,-3.76409 1.569995,-4.41478 -0.405644,-0.65635 -2.584211,2.75998 -4.893227,7.67333 -2.977785,6.33642 -5.712271,10.31223 -9.610257,13.97285 -5.362645,5.0361 -5.463123,5.07769 -6.397808,2.64847 -1.33272,-3.46369 -0.225809,-16.45801 1.841497,-21.61778 2.378007,-5.93525 20.713449,-23.55728 33.429043,-32.12836 5.535303,-3.73112 11.017637,-7.61995 12.182964,-8.64185 1.165327,-1.02189 4.025675,-2.85062 6.356328,-4.06384 2.330654,-1.21322 7.336263,-4.30524 11.123576,-6.87116 3.787312,-2.56591 20.33425,-12.84757 36.77096,-22.84812 l 29.88495,-18.18282 13.54996,-2.0458 c 60.98228,-9.207193 242.60265,-36.041015 261.97649,-38.706177 6.70063,-0.921771 12.94603,-1.884933 13.87868,-2.140359 1.07278,-0.293806 3.03965,1.260581 5.35408,4.231258 2.0121,2.582619 6.10808,7.501109 9.10219,10.929979 2.99412,3.428871 7.32281,8.595399 9.61933,11.481173 l 4.17548,5.246866 -23.33162,18.53929 c -29.42192,23.37863 -51.52562,42.2639 -59.15559,50.54217 -3.26003,3.53703 -8.02728,7.7329 -10.59388,9.32414 -11.51788,7.14088 -14.90343,12.85415 -15.58406,26.2988 l -0.47382,9.35948 4.63629,-2.32319 c 2.54994,-1.27776 6.90071,-4.20691 9.66836,-6.50922 2.76766,-2.30232 5.0321,-3.92864 5.0321,-3.61405 0,0.31457 -2.84586,7.11106 -6.32412,15.10327 -3.47825,7.99222 -6.19928,14.65614 -6.04671,14.80871 0.54797,0.54796 20.61348,-15.42639 22.68469,-18.05951 2.74924,-3.49509 3.45818,-2.60685 3.45818,4.33279 0,14.41937 7.11256,18.58815 20.65807,12.108 3.49598,-1.67247 8.4862,-4.74646 11.08937,-6.83111 2.60317,-2.08464 4.8885,-3.63479 5.07852,-3.44478 0.19001,0.19001 -2.75529,8.60665 -6.54512,18.70364 -3.78982,10.09699 -6.68835,18.56039 -6.44118,18.80756 0.62302,0.62304 12.15796,-9.2299 21.82996,-18.64677 l 8.06134,-7.84869 1.20831,4.79863 c 1.75747,6.97956 1.56094,8.26167 -2.11767,13.81536 -4.34595,6.56118 -7.34936,8.43514 -13.16658,8.2151 -5.1963,-0.19655 -5.13505,-0.29371 -3.57215,5.66615 1.99227,7.5973 1.90933,7.55053 5.50899,3.10554 1.85507,-2.29071 6.22681,-7.16933 9.71499,-10.84139 6.09689,-6.41831 6.37951,-6.58216 7.30867,-4.23756 0.91147,2.29996 1.08913,2.16729 3.11809,-2.32833 3.36541,-7.45681 4.9816,-14.74047 4.99527,-22.512 0.0118,-6.70141 0.16239,-7.15178 2.3962,-7.16533 1.31099,-0.008 3.39468,-0.28582 4.63041,-0.61747 3.89562,-1.04552 9.09216,4.84346 15.84078,17.95157 l 6.21885,12.07913 -1.85653,5.88961 c -1.0211,3.23928 -2.81056,11.76056 -3.97657,18.93619 -4.66661,28.71801 -19.14339,91.04503 -19.83897,85.41286 -0.91241,-7.38805 6.33037,-52.84077 13.03051,-81.77409 2.0078,-8.67028 3.35822,-16.23712 3.00094,-16.8152 -0.35728,-0.57808 -1.18342,-3.45499 -1.83588,-6.39312 l -1.18628,-5.34205 -6.27431,8.38521 c -18.12886,24.22803 -56.97538,68.36804 -58.67403,66.66938 -1.91546,-1.91545 37.38653,-52.45318 54.8006,-70.46714 10.11234,-10.46069 10.79058,-11.43923 11.38126,-16.42051 l 0.62811,-5.29694 -6.03335,5.82663 c -3.31834,3.20465 -8.61965,10.11716 -11.78068,15.36113 -4.67059,7.74826 -5.74808,8.98869 -5.75138,6.62117 -0.002,-1.60232 -0.32342,-2.91331 -0.71377,-2.91331 -0.39034,0 -3.8466,2.98999 -7.68057,6.64444 -3.83395,3.65444 -8.56143,7.94888 -10.50549,9.54321 -3.28711,2.69577 -3.48572,3.21347 -2.83593,7.39245 0.3843,2.47152 0.9558,5.44713 1.26999,6.61246 0.42239,1.5666 -0.52345,1.06709 -3.62935,-1.91671 l -4.20063,-4.03549 -3.5989,2.95906 c -1.97939,1.62747 -3.85502,3.30746 -4.16803,3.73329 -0.31303,0.42584 -2.45829,-2.28927 -4.76725,-6.03359 -2.30897,-3.74431 -4.58835,-6.69613 -5.06529,-6.55962 -1.30348,0.37309 -6.73193,13.49588 -11.2576,27.21419 l -4.01917,12.18296 -2.7614,-8.71439 c -2.38022,-7.51143 -4.37445,-17.09269 -6.67257,-32.05812 l -0.56724,-3.69394 -2.28855,3.12187 c -1.2587,1.71702 -3.79195,7.30519 -5.62943,12.41815 -5.21194,14.50261 -7.71545,19.17748 -9.48398,17.70972 -0.81229,-0.67413 -1.47688,-2.04963 -1.47688,-3.05666 0,-1.00703 -0.52512,-3.33736 -1.16694,-5.17849 l -1.16696,-3.34752 -5.18937,3.80935 c -2.85416,2.09514 -5.18938,3.45226 -5.18938,3.01581 0,-0.43644 2.10099,-4.89168 4.66887,-9.90053 3.27838,-6.39474 4.50943,-9.94101 4.13354,-11.90736 -0.7105,-3.71675 2.35254,-19.15322 6.2384,-31.43902 1.72139,-5.44247 2.95634,-10.06886 2.74433,-10.28087 -0.21201,-0.21201 -2.72215,3.52583 -5.57809,8.30631 -6.60299,11.05257 -17.4641,26.71943 -21.68966,31.28673 -6.58556,7.11816 -7.34135,2.20036 -1.92575,-12.53075 3.22784,-8.78018 5.45499,-24.11857 3.87358,-26.67737 -0.38045,-0.61557 -2.87921,2.89376 -5.5528,7.79853 -2.67359,4.90477 -6.01009,9.99719 -7.41443,11.31651 -2.38606,2.24158 -2.7872,2.29985 -6.12196,0.88921 -4.80653,-2.03322 -6.43079,-4.12236 -10.46118,-13.45526 -1.88715,-4.36997 -3.50312,-8.03601 -3.59102,-8.14674 -0.0879,-0.11074 -0.20275,3.22633 -0.25521,7.41571 -0.0701,5.59782 -1.01453,10.36373 -3.56267,17.97822 -1.90702,5.69863 -3.69395,10.1345 -3.97098,9.85747 -0.27702,-0.27702 -0.93157,-10.18352 -1.45454,-22.01442 -1.03102,-23.324 -2.28117,-35.64954 -4.29891,-42.38418 -0.9864,-3.29228 -2.10549,-4.64665 -4.75374,-5.75316 -4.96238,-2.07341 -5.1113,-1.98797 -6.58965,3.78019 -0.73686,2.87508 -3.00082,7.9859 -5.03103,11.35741 -3.07857,5.11248 -3.50744,6.53352 -2.58366,8.561 1.03448,2.27042 0.91621,2.38903 -1.79042,1.79565 -5.28525,-1.1587 -16.52028,-4.83633 -19.5309,-6.39319 -1.6312,-0.84352 -2.96583,-1.22017 -2.96583,-0.83698 0,1.32843 4.58601,8.38731 8.70219,13.3946 2.27513,2.76765 3.73913,5.03209 3.25333,5.03209 -0.48579,0 -4.61201,-2.12492 -9.16938,-4.72205 l -8.28613,-4.72205 0.36636,23.79149 c 0.20151,13.08533 0.0494,23.79131 -0.33812,23.79105 -1.21694,-8e-4 -9.27892,-9.67003 -13.64184,-16.36151 -2.30074,-3.52869 -4.57652,-6.89998 -5.05729,-7.49176 -0.48076,-0.59177 -2.23564,-3.39922 -3.89973,-6.23876 -2.60677,-4.44813 -3.13239,-4.87415 -3.79699,-3.07756 -0.42426,1.14689 -0.93131,10.27528 -1.12679,20.28534 -0.19547,10.01005 -0.59847,18.88407 -0.89556,19.72003 -0.37326,1.0503 -1.90563,-0.10149 -4.9592,-3.72735 l -4.41903,-5.2473 -3.3596,5.87196 -3.3596,5.87196 7.18235,8.17475 c 3.95029,4.4961 8.37413,9.48574 9.83076,11.08806 7.87819,8.66618 -9.91671,-4.22182 -27.85259,-20.1723 -6.36092,-5.65681 -11.83771,-10.11948 -12.17064,-9.91704 -0.33293,0.20244 -1.0876,-0.78971 -1.67704,-2.20478 -0.58945,-1.41507 -3.7821,-5.56092 -7.09481,-9.21299 l -6.02311,-6.64015 -2.38609,2.22299 -2.38609,2.22298 2.72408,2.91409 c 8.80593,9.42016 58.83494,77.17804 57.77039,78.24259 -0.24471,0.24471 -6.19719,-5.46609 -13.22774,-12.69065 -15.45351,-15.87997 -31.91289,-36.354 -44.45307,-55.29572 -5.116,-7.72762 -9.69116,-14.09025 -10.16703,-14.1392 -1.27328,-0.13093 -8.39512,-5.595 -10.35094,-7.9415 -2.5087,-3.00985 -2.92649,-0.95363 -1.48788,7.32284 1.7719,10.19395 3.05658,28.45626 1.9539,27.77544 -0.49673,-0.30669 -0.96741,19.06151 -1.04598,43.04043 -0.0786,23.97893 -0.56345,47.65021 -1.07752,52.60285 l -0.93468,9.0048 z m 282.69261,-94.47271 c 0.8213,-1.53462 0.30306,-2.90852 -2.43049,-6.44346 -1.91091,-2.47112 -3.59849,-4.69159 -3.75019,-4.93437 -0.1517,-0.24277 -0.50239,-0.21484 -0.7793,0.0621 -0.57306,0.57306 1.3696,13.51129 2.2402,14.91996 0.67925,1.09905 3.25558,-0.86834 4.71978,-3.60421 z M 210.52747,265.95177 c 0.0215,-3.23058 -0.81757,-4.4466 -6.51871,-9.44698 -3.59887,-3.15651 -7.11074,-5.92823 -7.80415,-6.15936 -0.75035,-0.25012 -1.92921,1.83075 -2.91198,5.14011 -1.5485,5.21437 -1.53136,5.69653 0.27548,7.74845 1.05972,1.20345 4.99313,5.70483 8.74093,10.00308 l 6.81418,7.81498 0.68976,-5.69621 c 0.37938,-3.13292 0.70089,-7.36475 0.71449,-9.40407 z m -26.32578,-17.21506 c -0.0573,-5.27281 -2.37266,-12.082 -5.0664,-14.8996 l -2.85044,-2.98149 -0.69027,2.45179 c -1.62002,5.75414 -0.93806,8.91371 2.88893,13.38468 4.27103,4.98974 5.75595,5.5207 5.71818,2.04462 z m -38.53582,-2.48956 c -0.37703,-0.98252 -0.92387,-1.54804 -1.21521,-1.25671 -0.29133,0.29133 -0.22121,1.33358 0.15582,2.3161 0.37702,0.98252 0.92387,1.54804 1.2152,1.25671 0.29133,-0.29133 0.22121,-1.33358 -0.15581,-2.3161 z m 59.0112,-1.74406 c -0.85242,-2.47416 -2.14747,-7.36059 -2.87789,-10.85873 l -1.32806,-6.36026 -1.38337,5.99788 -1.38337,5.99787 3.98311,4.86086 c 2.19071,2.67347 4.10827,4.86085 4.26127,4.86085 0.15299,0 -0.41928,-2.02431 -1.27169,-4.49847 z m 74.00287,-36.28941 c 0.19959,-3.20545 0.0168,-5.82743 -0.40604,-5.82664 -0.42292,8e-4 -2.19235,0.86707 -3.93208,1.92506 l -3.16313,1.92362 2.77702,3.90301 c 1.52738,2.14666 3.13351,3.90302 3.56919,3.90302 0.43568,0 0.95545,-2.62263 1.15504,-5.82807 z"
     id="path143"
     inkscape:connector-curvature="0" />
  <path
     style="stroke-width:1.05938816"
     d="m 146.35381,375.06875 c -2.66164,-29.54023 -3.69011,-55.35923 -3.21241,-80.64426 0.43516,-23.03302 0.28351,-26.49057 -1.29587,-29.54475 l -1.7887,-3.45897 -0.69146,3.45731 c -0.38031,1.90153 -0.69146,6.50999 -0.69146,10.24104 0,8.66874 -2.72807,35.15111 -4.89421,47.50991 -1.85666,10.59309 -6.61305,30.41908 -7.49669,31.24837 -1.45988,1.37007 2.5773,-63.96972 5.62198,-90.98907 l 1.71804,-15.24642 -2.96629,-6.20619 c -1.63146,-3.41342 -3.28383,-6.20621 -3.67194,-6.20621 -0.38811,0 -1.02878,5.71761 -1.42371,12.70579 -1.42665,25.24382 -7.43836,66.59339 -12.78482,87.93609 l -2.52113,10.06418 0.46673,-8.4751 c 1.60164,-29.0831 3.91272,-61.45062 5.86221,-82.10258 1.23755,-13.10993 2.30432,-25.6805 2.37062,-27.9346 0.15835,-5.38466 -1.90713,-6.80634 -7.46144,-5.13573 l -4.0713,1.22457 -0.0784,13.00956 c -0.0486,8.06328 -0.5955,14.21791 -1.43854,16.18773 -1.35469,3.16531 -1.37062,3.14174 -3.93809,-5.82664 -1.41785,-4.95264 -2.807897,-9.66917 -3.088998,-10.48118 -0.311532,-0.89992 -2.615333,1.58195 -5.900276,6.35633 -6.003323,8.72531 -15.930698,21.24579 -16.440986,20.73551 -0.181646,-0.18164 1.549149,-8.62097 3.846209,-18.75407 2.297061,-10.13309 4.016533,-18.58375 3.821048,-18.77924 -0.195485,-0.19548 -3.285563,2.69601 -6.866839,6.42554 -14.1196,14.7041 -21.967981,13.29209 -23.939841,-4.30703 -0.408022,-3.64164 -1.085284,-6.62117 -1.505026,-6.62117 -0.419744,0 -1.445566,1.41159 -2.279606,3.13688 -1.485409,3.07269 -14.996316,19.2184 -15.589737,18.62993 -0.867107,-0.85986 9.415711,-34.83609 11.376411,-37.58963 1.265647,-1.77744 1.972144,-3.76409 1.569995,-4.41478 -0.405644,-0.65635 -2.584211,2.75998 -4.893227,7.67333 -2.977785,6.33642 -5.712271,10.31223 -9.610257,13.97285 -5.362645,5.0361 -5.463123,5.07769 -6.397808,2.64847 -1.33272,-3.46369 -0.225809,-16.45801 1.841497,-21.61778 2.378007,-5.93525 20.713449,-23.55728 33.429043,-32.12836 5.535303,-3.73112 11.017637,-7.61995 12.182964,-8.64185 1.165327,-1.02189 4.025675,-2.85062 6.356328,-4.06384 2.330654,-1.21322 7.336263,-4.30524 11.123576,-6.87116 3.787312,-2.56591 20.33425,-12.84757 36.77096,-22.84812 l 29.88495,-18.18282 13.54996,-2.0458 c 60.98228,-9.207193 242.60265,-36.041015 261.97649,-38.706177 6.70063,-0.921771 12.94603,-1.884933 13.87868,-2.140359 1.07278,-0.293806 3.03965,1.260581 5.35408,4.231258 2.0121,2.582619 6.10808,7.501109 9.10219,10.929979 2.99412,3.428871 7.32281,8.595399 9.61933,11.481173 l 4.17548,5.246866 -23.33162,18.53929 c -29.42192,23.37863 -51.52562,42.2639 -59.15559,50.54217 -3.26003,3.53703 -8.02728,7.7329 -10.59388,9.32414 -11.51788,7.14088 -14.90343,12.85415 -15.58406,26.2988 l -0.47382,9.35948 4.63629,-2.32319 c 2.54994,-1.27776 6.90071,-4.20691 9.66836,-6.50922 2.76766,-2.30232 5.0321,-3.92864 5.0321,-3.61405 0,0.31457 -2.84586,7.11106 -6.32412,15.10327 -3.47825,7.99222 -6.19928,14.65614 -6.04671,14.80871 0.54797,0.54796 20.61348,-15.42639 22.68469,-18.05951 2.74924,-3.49509 3.45818,-2.60685 3.45818,4.33279 0,14.41937 7.11256,18.58815 20.65807,12.108 3.49598,-1.67247 8.4862,-4.74646 11.08937,-6.83111 2.60317,-2.08464 4.8885,-3.63479 5.07852,-3.44478 0.19001,0.19001 -2.75529,8.60665 -6.54512,18.70364 -3.78982,10.09699 -6.68835,18.56039 -6.44118,18.80756 0.62302,0.62304 12.15796,-9.2299 21.82996,-18.64677 l 8.06134,-7.84869 1.20831,4.79863 c 1.75747,6.97956 1.56094,8.26167 -2.11767,13.81536 -4.34595,6.56118 -7.34936,8.43514 -13.16658,8.2151 -5.1963,-0.19655 -5.13505,-0.29371 -3.57215,5.66615 1.99227,7.5973 1.90933,7.55053 5.50899,3.10554 1.85507,-2.29071 6.22681,-7.16933 9.71499,-10.84139 6.09689,-6.41831 6.37951,-6.58216 7.30867,-4.23756 0.91147,2.29996 1.08913,2.16729 3.11809,-2.32833 3.36541,-7.45681 4.9816,-14.74047 4.99527,-22.512 0.0118,-6.70141 0.16239,-7.15178 2.3962,-7.16533 1.31099,-0.008 3.39468,-0.28582 4.63041,-0.61747 3.89562,-1.04552 9.09216,4.84346 15.84078,17.95157 l 6.21885,12.07913 -1.85653,5.88961 c -1.0211,3.23928 -2.81056,11.76056 -3.97657,18.93619 -4.66661,28.71801 -19.14339,91.04503 -19.83897,85.41286 -0.91241,-7.38805 6.33037,-52.84077 13.03051,-81.77409 2.0078,-8.67028 3.35822,-16.23712 3.00094,-16.8152 -0.35728,-0.57808 -1.18342,-3.45499 -1.83588,-6.39312 l -1.18628,-5.34205 -6.27431,8.38521 c -18.12886,24.22803 -56.97538,68.36804 -58.67403,66.66938 -1.91546,-1.91545 37.38653,-52.45318 54.8006,-70.46714 10.11234,-10.46069 10.79058,-11.43923 11.38126,-16.42051 l 0.62811,-5.29694 -6.03335,5.82663 c -3.31834,3.20465 -8.61965,10.11716 -11.78068,15.36113 -4.67059,7.74826 -5.74808,8.98869 -5.75138,6.62117 -0.002,-1.60232 -0.32342,-2.91331 -0.71377,-2.91331 -0.39034,0 -3.8466,2.98999 -7.68057,6.64444 -3.83395,3.65444 -8.56143,7.94888 -10.50549,9.54321 -3.28711,2.69577 -3.48572,3.21347 -2.83593,7.39245 0.3843,2.47152 0.9558,5.44713 1.26999,6.61246 0.42239,1.5666 -0.52345,1.06709 -3.62935,-1.91671 l -4.20063,-4.03549 -3.5989,2.95906 c -1.97939,1.62747 -3.85502,3.30746 -4.16803,3.73329 -0.31303,0.42584 -2.45829,-2.28927 -4.76725,-6.03359 -2.30897,-3.74431 -4.58835,-6.69613 -5.06529,-6.55962 -1.30348,0.37309 -6.73193,13.49588 -11.2576,27.21419 l -4.01917,12.18296 -2.7614,-8.71439 c -2.38022,-7.51143 -4.37445,-17.09269 -6.67257,-32.05812 l -0.56724,-3.69394 -2.28855,3.12187 c -1.2587,1.71702 -3.79195,7.30519 -5.62943,12.41815 -5.21194,14.50261 -7.71545,19.17748 -9.48398,17.70972 -0.81229,-0.67413 -1.47688,-2.04963 -1.47688,-3.05666 0,-1.00703 -0.52512,-3.33736 -1.16694,-5.17849 l -1.16696,-3.34752 -5.18937,3.80935 c -2.85416,2.09514 -5.18938,3.45226 -5.18938,3.01581 0,-0.43644 2.10099,-4.89168 4.66887,-9.90053 3.27838,-6.39474 4.50943,-9.94101 4.13354,-11.90736 -0.7105,-3.71675 2.35254,-19.15322 6.2384,-31.43902 1.72139,-5.44247 2.95634,-10.06886 2.74433,-10.28087 -0.21201,-0.21201 -2.72215,3.52583 -5.57809,8.30631 -6.60299,11.05257 -17.4641,26.71943 -21.68966,31.28673 -6.58556,7.11816 -7.34135,2.20036 -1.92575,-12.53075 3.22784,-8.78018 5.45499,-24.11857 3.87358,-26.67737 -0.38045,-0.61557 -2.87921,2.89376 -5.5528,7.79853 -2.67359,4.90477 -6.01009,9.99719 -7.41443,11.31651 -2.38606,2.24158 -2.7872,2.29985 -6.12196,0.88921 -4.80653,-2.03322 -6.43079,-4.12236 -10.46118,-13.45526 -1.88715,-4.36997 -3.50312,-8.03601 -3.59102,-8.14674 -0.0879,-0.11074 -0.20275,3.22633 -0.25521,7.41571 -0.0701,5.59782 -1.01453,10.36373 -3.56267,17.97822 -1.90702,5.69863 -3.69395,10.1345 -3.97098,9.85747 -0.27702,-0.27702 -0.93157,-10.18352 -1.45454,-22.01442 -1.03102,-23.324 -2.28117,-35.64954 -4.29891,-42.38418 -0.9864,-3.29228 -2.10549,-4.64665 -4.75374,-5.75316 -4.96238,-2.07341 -5.1113,-1.98797 -6.58965,3.78019 -0.73686,2.87508 -3.00082,7.9859 -5.03103,11.35741 -3.07857,5.11248 -3.50744,6.53352 -2.58366,8.561 1.03448,2.27042 0.91621,2.38903 -1.79042,1.79565 -5.28525,-1.1587 -16.52028,-4.83633 -19.5309,-6.39319 -1.6312,-0.84352 -2.96583,-1.22017 -2.96583,-0.83698 0,1.32843 4.58601,8.38731 8.70219,13.3946 2.27513,2.76765 3.73913,5.03209 3.25333,5.03209 -0.48579,0 -4.61201,-2.12492 -9.16938,-4.72205 l -8.28613,-4.72205 0.36636,23.79149 c 0.20151,13.08533 0.0494,23.79131 -0.33812,23.79105 -1.21694,-8e-4 -9.27892,-9.67003 -13.64184,-16.36151 -2.30074,-3.52869 -4.57652,-6.89998 -5.05729,-7.49176 -0.48076,-0.59177 -2.23564,-3.39922 -3.89973,-6.23876 -2.60677,-4.44813 -3.13239,-4.87415 -3.79699,-3.07756 -0.42426,1.14689 -0.93131,10.27528 -1.12679,20.28534 -0.19547,10.01005 -0.59847,18.88407 -0.89556,19.72003 -0.37326,1.0503 -1.90563,-0.10149 -4.9592,-3.72735 l -4.41903,-5.2473 -3.3596,5.87196 -3.3596,5.87196 7.18235,8.17475 c 3.95029,4.4961 8.37413,9.48574 9.83076,11.08806 7.87819,8.66618 -9.91671,-4.22182 -27.85259,-20.1723 -6.36092,-5.65681 -11.83771,-10.11948 -12.17064,-9.91704 -0.33293,0.20244 -1.0876,-0.78971 -1.67704,-2.20478 -0.58945,-1.41507 -3.7821,-5.56092 -7.09481,-9.21299 l -6.02311,-6.64015 -2.38609,2.22299 -2.38609,2.22298 2.72408,2.91409 c 8.80593,9.42016 58.83494,77.17804 57.77039,78.24259 -0.24471,0.24471 -6.19719,-5.46609 -13.22774,-12.69065 -15.45351,-15.87997 -31.91289,-36.354 -44.45307,-55.29572 -5.116,-7.72762 -9.69116,-14.09025 -10.16703,-14.1392 -1.27328,-0.13093 -8.39512,-5.595 -10.35094,-7.9415 -2.5087,-3.00985 -2.92649,-0.95363 -1.48788,7.32284 1.7719,10.19395 3.05658,28.45626 1.9539,27.77544 -0.49673,-0.30669 -0.96741,19.06151 -1.04598,43.04043 -0.0786,23.97893 -0.56345,47.65021 -1.07752,52.60285 l -0.93468,9.0048 z m 282.69261,-94.47271 c 0.8213,-1.53462 0.30306,-2.90852 -2.43049,-6.44346 -1.91091,-2.47112 -3.59849,-4.69159 -3.75019,-4.93437 -0.1517,-0.24277 -0.50239,-0.21484 -0.7793,0.0621 -0.57306,0.57306 1.3696,13.51129 2.2402,14.91996 0.67925,1.09905 3.25558,-0.86834 4.71978,-3.60421 z M 210.52747,265.95177 c 0.0215,-3.23058 -0.81757,-4.4466 -6.51871,-9.44698 -3.59887,-3.15651 -7.11074,-5.92823 -7.80415,-6.15936 -0.75035,-0.25012 -1.92921,1.83075 -2.91198,5.14011 -1.5485,5.21437 -1.53136,5.69653 0.27548,7.74845 1.05972,1.20345 4.99313,5.70483 8.74093,10.00308 l 6.81418,7.81498 0.68976,-5.69621 c 0.37938,-3.13292 0.70089,-7.36475 0.71449,-9.40407 z m -26.32578,-17.21506 c -0.0573,-5.27281 -2.37266,-12.082 -5.0664,-14.8996 l -2.85044,-2.98149 -0.69027,2.45179 c -1.62002,5.75414 -0.93806,8.91371 2.88893,13.38468 4.27103,4.98974 5.75595,5.5207 5.71818,2.04462 z m -38.53582,-2.48956 c -0.37703,-0.98252 -0.92387,-1.54804 -1.21521,-1.25671 -0.29133,0.29133 -0.22121,1.33358 0.15582,2.3161 0.37702,0.98252 0.92387,1.54804 1.2152,1.25671 0.29133,-0.29133 0.22121,-1.33358 -0.15581,-2.3161 z m 59.0112,-1.74406 c -0.85242,-2.47416 -2.14747,-7.36059 -2.87789,-10.85873 l -1.32806,-6.36026 -1.38337,5.99788 -1.38337,5.99787 3.98311,4.86086 c 2.19071,2.67347 4.10827,4.86085 4.26127,4.86085 0.15299,0 -0.41928,-2.02431 -1.27169,-4.49847 z m 74.00287,-36.28941 c 0.19959,-3.20545 0.0168,-5.82743 -0.40604,-5.82664 -0.42292,8e-4 -2.19235,0.86707 -3.93208,1.92506 l -3.16313,1.92362 2.77702,3.90301 c 1.52738,2.14666 3.13351,3.90302 3.56919,3.90302 0.43568,0 0.95545,-2.62263 1.15504,-5.82807 z"
     id="path145"
     inkscape:connector-curvature="0" />
  <rect
     id="rect147"
     width="1703.4961"
     height="331.58847"
     x="25.425316"
     y="379.13977" />
  <rect
     id="rect149"
     width="557.23816"
     height="201.28374"
     x="143.0174"
     y="443.76245" />
  <rect
     id="rect151"
     width="137.72046"
     height="24.365927"
     x="315.69766"
     y="547.58246" />
  <rect
     id="rect153"
     width="1665.3582"
     height="313.57889"
     x="63.563286"
     y="397.14938" />
  <rect
     id="rect155"
     width="3.1781645"
     height="204.46191"
     x="105.93881"
     y="427.87161" />
  <rect
     id="rect157"
     width="1744.8123"
     height="343.24176"
     x="43.434914"
     y="403.50571" />
  <rect
     id="rect159"
     width="1634.6359"
     height="279.67847"
     x="128.18596"
     y="474.48471" />
  <rect
     id="rect161"
     width="176.91782"
     height="158.90822"
     x="787.12537"
     y="482.95981" />
  <rect
     id="rect163"
     width="1725.7433"
     height="371.84525"
     x="54.028793"
     y="359.01138" />
  <rect
     id="rect165"
     width="1515.9844"
     height="340.0636"
     x="162.08638"
     y="372.78345" />
</svg>
